<svg width="20" height="16" viewBox="0 0 20 16" fill="none" xmlns="http://www.w3.org/2000/svg">
<path d="M0 2.44439H20C20 1.2187 19.0035 0.222168 17.7778 0.222168H2.22222C0.996528 0.222168 0 1.2187 0 2.44439ZM0 3.5555V13.5555C0 14.7812 0.996528 15.7777 2.22222 15.7777H17.7778C19.0035 15.7777 20 14.7812 20 13.5555V3.5555H0ZM2.22222 13.184C2.22222 12.1597 3.05208 11.3333 4.07292 11.3333H8.14583C9.17014 11.3333 9.99653 12.1631 9.99653 13.184C9.99653 13.3888 9.82986 13.5555 9.625 13.5555H2.59375C2.38889 13.5555 2.22222 13.3888 2.22222 13.184ZM6.11111 5.77772C6.70048 5.77772 7.26571 6.01185 7.68246 6.4286C8.09921 6.84534 8.33333 7.41058 8.33333 7.99995C8.33333 8.58932 8.09921 9.15455 7.68246 9.57129C7.26571 9.98804 6.70048 10.2222 6.11111 10.2222C5.52174 10.2222 4.95651 9.98804 4.53976 9.57129C4.12302 9.15455 3.88889 8.58932 3.88889 7.99995C3.88889 7.41058 4.12302 6.84534 4.53976 6.4286C4.95651 6.01185 5.52174 5.77772 6.11111 5.77772ZM12.2222 6.33328C12.2222 6.02772 12.4722 5.77772 12.7778 5.77772H17.2222C17.5278 5.77772 17.7778 6.02772 17.7778 6.33328C17.7778 6.63883 17.5278 6.88883 17.2222 6.88883H12.7778C12.4722 6.88883 12.2222 6.63883 12.2222 6.33328ZM12.2222 8.5555C12.2222 8.24995 12.4722 7.99995 12.7778 7.99995H17.2222C17.5278 7.99995 17.7778 8.24995 17.7778 8.5555C17.7778 8.86106 17.5278 9.11106 17.2222 9.11106H12.7778C12.4722 9.11106 12.2222 8.86106 12.2222 8.5555ZM12.2222 10.7777C12.2222 10.4722 12.4722 10.2222 12.7778 10.2222H17.2222C17.5278 10.2222 17.7778 10.4722 17.7778 10.7777C17.7778 11.0833 17.5278 11.3333 17.2222 11.3333H12.7778C12.4722 11.3333 12.2222 11.0833 12.2222 10.7777Z" fill="#020659"/>
</svg>
