<svg width="18" height="19" viewBox="0 0 18 19" fill="none" xmlns="http://www.w3.org/2000/svg">
<path d="M7.57266 4.19409H5.0625H3.78984H3.375V4.50347V5.88159V7.3019V10.4308L0.00703125 7.93823C0.0632813 7.3019 0.390234 6.71128 0.910547 6.32808L1.6875 5.75151V4.19409C1.6875 3.26245 2.44336 2.50659 3.375 2.50659H6.06797L7.82227 1.20933C8.16328 0.956201 8.57461 0.819092 9 0.819092C9.42539 0.819092 9.83672 0.956201 10.1777 1.20581L11.932 2.50659H14.625C15.5566 2.50659 16.3125 3.26245 16.3125 4.19409V5.75151L17.0895 6.32808C17.6098 6.71128 17.9367 7.3019 17.993 7.93823L14.625 10.4308V7.3019V5.88159V4.50347V4.19409H14.2102H12.9375H10.4273H7.57266ZM0 16.5691V9.33042L7.65 14.9976C8.04023 15.2859 8.51484 15.4441 9 15.4441C9.48516 15.4441 9.95977 15.2894 10.35 14.9976L18 9.33042V16.5691C18 17.8101 16.991 18.8191 15.75 18.8191H2.25C1.00898 18.8191 0 17.8101 0 16.5691ZM6.1875 6.44409H11.8125C12.1219 6.44409 12.375 6.69722 12.375 7.00659C12.375 7.31597 12.1219 7.56909 11.8125 7.56909H6.1875C5.87813 7.56909 5.625 7.31597 5.625 7.00659C5.625 6.69722 5.87813 6.44409 6.1875 6.44409ZM6.1875 8.69409H11.8125C12.1219 8.69409 12.375 8.94722 12.375 9.25659C12.375 9.56597 12.1219 9.81909 11.8125 9.81909H6.1875C5.87813 9.81909 5.625 9.56597 5.625 9.25659C5.625 8.94722 5.87813 8.69409 6.1875 8.69409Z" fill="#020659"/>
</svg>
