<svg width="608" height="499" viewBox="0 0 608 499" fill="none" xmlns="http://www.w3.org/2000/svg">
<g opacity="0.15" clip-path="url(#clip0_36_170)" filter="url(#filter0_f_36_170)">
<path d="M321.588 45.5397C319.176 48.7558 304.837 56.595 297.97 60.1126C319.913 55.255 376.161 48.4543 425.608 60.1126C475.055 71.7708 489.762 87.7507 490.935 94.2834C521.085 100.314 511.538 78.0355 502.995 66.1427C416.06 0.313566 324.603 41.5196 321.588 45.5397Z" fill="url(#paint0_linear_36_170)"/>
<path d="M382.392 130.967C401.488 134.317 440.111 135.576 455.759 124.1C470.834 113.045 462.292 118.404 462.292 116.394C462.292 114.384 452.241 104.502 445.206 100.985C441.689 104 407.518 109.861 391.437 107.851C375.357 105.841 353.246 106.344 325.106 109.861C302.593 112.675 285.239 125.104 279.377 130.967C299.879 120.917 356.596 126.779 382.392 130.967Z" fill="url(#paint1_linear_36_170)"/>
<path d="M469.327 225.439C486.613 203.329 483.565 158.27 479.879 138.505L463.799 142.191L453.749 153.077L455.256 160.113C467.819 190.156 451.739 235.489 445.206 242.022C438.673 248.555 432.141 263.63 437.668 256.092C442.09 250.062 460.616 233.145 469.327 225.439Z" fill="url(#paint2_linear_36_170)"/>
<path d="M555.759 145.037C553.347 135.389 554.754 123.261 555.759 118.404L534.151 116.394L511.538 125.439C507.685 126.612 501.286 128.756 506.513 127.952C513.045 126.947 539.176 157.6 539.678 160.113C540.181 162.625 558.774 186.243 560.784 182.223C562.794 178.203 558.774 157.097 555.759 145.037Z" fill="url(#paint3_linear_36_170)"/>
<path d="M191.437 185.095L173.849 198.161C249.226 -88.7736 528.121 -6.36156 578.874 119.266C653.246 269.015 542.693 396.151 470.332 423.789C485.608 408.111 488.757 404.861 488.422 405.196C621.085 291.427 591.269 167.173 559.779 119.266C543.296 115.246 510.03 126.972 495.457 133.337C537.668 190.422 531.806 257.625 523.598 284.09C514.754 320.271 490.097 342.382 478.874 348.915C539.578 240.774 504.168 164.158 478.874 139.367C470.834 137.357 389.93 198.663 370.834 217.256C351.739 235.849 329.628 258.965 322.593 269.015C315.558 279.065 316.06 278.06 299.477 291.628C286.211 302.482 276.194 302.851 272.844 301.678C283.296 302.482 291.94 289.618 294.955 283.085C339.176 210.322 430.968 147.575 471.337 125.296C467.719 120.874 449.058 107.039 440.181 100.674C358.975 51.6284 268.322 96.6534 233.146 125.296C256.764 84.5931 310.533 70.5228 326.111 68.0102C341.688 65.4976 373.849 64.9951 392.945 66.0001C405.005 68.114 434.955 76.7638 458.271 94.4522L471.337 102.995L484.904 119.266C498.041 113.675 529.769 103.095 551.594 105.507C533.969 79.5684 507.62 59.286 487.417 46.9362L486.412 46.3913L468.824 36.8545C441.688 25.6318 372.342 7.70877 303.497 41.8796C242.255 72.2773 198.807 151.93 191.437 185.095Z" fill="url(#paint4_linear_36_170)"/>
<path d="M486.412 44.7035L470.834 36.6633C487.719 82.8945 469.159 94.4523 457.769 94.4523L469.327 102.492C496.261 94.4523 491.94 60.6164 486.412 44.7035Z" fill="url(#paint5_linear_36_170)"/>
<path d="M474.853 439.483C467.505 444.872 391.915 479.232 353.749 494.452C388.274 494.452 455.33 464.899 484.542 450.123C508.499 434.164 541.351 409.783 556.764 362.794C553.726 371.216 510.524 413.33 474.853 439.483Z" fill="#C09513"/>
<path d="M484.904 445.206C499.779 435.96 544.062 392.442 556.764 362.794C554.754 371.169 546.714 392.643 530.633 411.538C514.553 430.432 493.447 445.541 484.904 450.734L476.362 454.754C469.327 458.774 448.221 468.824 428.121 475.859C417.09 479.72 391.269 488.422 379.377 491.437C375.189 492.274 366.01 494.05 362.794 494.452C359.578 494.854 355.759 494.62 354.251 494.452C405.005 481.387 470.03 454.452 484.904 445.206Z" fill="url(#paint6_linear_36_170)"/>
<path d="M480.884 355.759C491.739 348.523 535.658 304.168 556.261 282.895C552.744 293.447 492.442 384.905 456.261 416.563C439.147 431.538 341.186 465.809 301.99 470.834C270.633 474.854 236.329 476.864 223.095 477.367C296.965 461.286 334.151 440.683 363.296 429.126C392.442 417.568 467.317 364.804 480.884 355.759Z" fill="#F2BE22"/>
<path d="M456.764 401.99C468.02 396.362 527.786 320.583 556.261 283.397C550.891 299.974 526.613 328.623 508.382 356.261C478.874 394.955 469.376 409.589 456.764 417.568C432.141 433.146 401.655 442.191 379.879 450.231C345.709 461.487 323.263 467.819 309.025 470.332C267.317 475.859 233.648 477.869 225.106 476.864C273.347 474.854 375.357 445.709 456.764 401.99Z" fill="url(#paint7_linear_36_170)"/>
<path d="M462.292 397.467C470.734 392.241 528.791 319.243 556.764 283.397L555.759 286.412L552.744 291.94L545.709 302.995L538.171 315.055L499.98 367.819C473.045 400.382 466.646 396.797 462.292 397.467Z" fill="url(#paint8_linear_36_170)"/>
<path d="M227.116 427.618C358.171 367.719 451.404 281.889 485.407 239.176C470.666 272.007 437.97 330.633 394.955 360.784C407.819 362.392 431.136 349.394 441.186 342.693C422.593 372.342 318.573 422.09 253.749 442.693C201.889 459.176 135.658 465.977 109.025 467.317C145.162 455.591 219.372 431.236 227.116 427.618Z" fill="url(#paint9_linear_36_170)"/>
<path d="M227.116 427.618C358.171 367.719 451.404 281.889 485.407 239.176C470.666 272.007 437.97 330.633 394.955 360.784L271.839 424.101C196.965 449.729 135.658 465.977 109.025 467.317C145.162 455.591 219.372 431.236 227.116 427.618Z" fill="#FFCA06" fill-opacity="0.36"/>
<path d="M485.87 240.743L492.945 224.603C491.36 229.464 488.941 234.9 485.87 240.743L441.186 342.693C432.643 349.896 408.422 364.704 391.94 362.291C416.818 335.812 465.58 279.36 485.87 240.743Z" fill="url(#paint10_linear_36_170)"/>
<path d="M300.482 334.151C333.045 318.874 403.497 231.973 434.653 190.432L367.819 301.99C327.116 337.668 303.665 336.998 300.482 334.151Z" fill="url(#paint11_linear_36_170)"/>
<path d="M338.171 271.839C361.085 259.779 412.04 212.208 434.653 189.93C417.065 221.923 365.709 295.759 300.985 335.156C341.588 323.096 363.129 307.015 368.824 300.482C347.719 329.126 273.849 369.829 232.141 388.422C198.774 403.297 157.769 416.563 39.1759 444.201C160.784 406.513 279.042 321.253 338.171 271.839Z" fill="url(#paint12_linear_36_170)"/>
<path d="M191.94 405.508C172.475 412.707 84.9045 433.146 41.1859 443.699C173.045 409.93 270.728 357.033 303.086 334.806C347.046 318.635 357.242 310.417 368.195 301.59L368.322 301.487C335.156 344.704 228.623 391.94 191.94 405.508Z" fill="#B0890C"/>
<path d="M361.789 171.839C387.92 160.985 406.513 149.226 412.543 144.703C385.91 164.804 330.231 208.422 320.583 222.09C308.523 239.176 293.447 261.286 272.844 280.382C284.905 269.93 309.695 253.246 320.583 246.211C307.015 255.216 293.447 272.844 272.844 293.447C252.241 314.05 169.327 358.271 161.286 360.281C153.246 362.291 78.8744 387.417 56.7638 400.482C41.8531 409.293 24.2286 414.915 13.9438 417.465C12.0188 418.165 10.3329 418.573 9.02512 418.573C10.3666 418.31 12.0279 417.941 13.9438 417.465C23.1141 414.137 37.7095 404.22 42.6935 400.482C48.7236 395.96 61.7889 384.402 85.9095 376.864C110.03 369.327 260.784 240.181 269.829 232.141C278.874 224.1 329.126 185.407 361.789 171.839Z" fill="url(#paint13_linear_36_170)"/>
<path d="M240.683 286.412C268.02 253.045 365.641 178.706 411.035 145.708C384.737 166.479 329.441 211.133 320.08 224.603C300.16 253.268 287.913 264.397 276.979 276.609C281.523 272.099 295.934 261.855 309.528 253.246C310.183 252.831 321.263 245.562 320.583 246.211C309.528 256.764 273.615 294.523 265.307 300.985C252.744 310.756 187.92 348.724 173.849 355.759C162.593 361.387 151.739 364.134 147.719 364.804C138.673 366.814 101.655 381.052 80.3819 389.427L126.613 367.819C153.246 354.586 213.347 319.779 240.683 286.412Z" fill="url(#paint14_linear_36_170)"/>
<path d="M320.08 246.714C308.857 254.083 284.603 270.332 277.367 276.362C287.417 265.307 310.332 239.176 321.588 223.095C328.823 213.486 376.25 173.711 402.092 152.524C403.757 150.925 404.93 149.951 405.508 149.729C404.418 150.618 403.278 151.551 402.092 152.524C388.699 165.386 343.471 218.705 320.08 246.714Z" fill="url(#paint15_linear_36_170)"/>
<path d="M295.96 147.719C295.672 147.779 295.369 147.844 295.05 147.917C285.108 150.994 257.548 185.549 250.734 189.93C243.698 194.452 240.683 206.513 235.658 213.045C230.633 219.578 165.307 271.839 148.724 283.9C135.716 293.36 53.0361 335.804 10.9767 357.033C10.1174 357.486 9.29842 357.9 8.52261 358.271C9.32407 357.867 10.1424 357.454 10.9767 357.033C36.8342 343.408 99.2319 294.049 122.09 266.814C145.709 238.673 229.628 182.895 250.734 167.819C267.014 156.19 286.471 149.856 295.05 147.917C295.373 147.817 295.676 147.75 295.96 147.719Z" fill="#1F8AFE"/>
<path d="M293.447 148.724C291.353 150.489 288.963 152.518 286.364 154.74C276.703 164.994 260.718 185.079 256.261 188.422C250.231 192.945 236.161 212.04 234.653 214.553C233.146 217.065 196.462 246.714 188.925 252.744C182.894 257.568 155.256 280.884 141.688 288.422L119.578 300.985L99.9799 311.035C107.852 304 125.407 288.824 132.643 284.402C141.688 278.874 155.256 265.307 164.302 254.754C171.538 246.312 210.867 219.41 229.628 207.015C238.446 196.433 267.767 170.636 286.364 154.74C289.775 151.119 292.398 148.724 293.447 148.724Z" fill="url(#paint16_linear_36_170)"/>
<path d="M244.704 200.985C234.251 207.417 224.938 211.37 221.588 212.543L230.633 205.508C234.653 201.574 258.774 178.372 263.296 174.352C266.833 171.208 284.583 153.563 293.828 148.547C294.073 148.388 294.282 148.277 294.452 148.221C294.249 148.323 294.04 148.431 293.828 148.547C288.838 151.786 268.785 175.49 257.769 188.422C253.246 192.442 248.724 197.467 244.704 200.985Z" fill="url(#paint17_linear_36_170)"/>
<path d="M96.4623 258.271C122.191 241.387 161.789 181.555 178.372 153.749C155.591 177.702 104.804 230.332 83.8995 249.226C62.995 268.121 21.9229 302.325 4 317.065C16.0603 311.035 64.3015 279.377 96.4623 258.271Z" fill="#1F8AFE"/>
<path d="M101.487 243.196C82.995 262.894 40.1809 293.95 21.0854 307.015C40.6834 295.96 85.9095 268.322 108.02 249.226C125.709 233.95 162.626 179.377 177.367 155.759C159.779 176.696 119.98 223.497 101.487 243.196Z" fill="url(#paint18_linear_36_170)"/>
</g>
<defs>
<filter id="filter0_f_36_170" x="0" y="0" width="608" height="499.457" filterUnits="userSpaceOnUse" color-interpolation-filters="sRGB">
<feFlood flood-opacity="0" result="BackgroundImageFix"/>
<feBlend mode="normal" in="SourceGraphic" in2="BackgroundImageFix" result="shape"/>
<feGaussianBlur stdDeviation="2" result="effect1_foregroundBlur_36_170"/>
</filter>
<linearGradient id="paint0_linear_36_170" x1="497.467" y1="29.1256" x2="370.332" y2="297.97" gradientUnits="userSpaceOnUse">
<stop stop-color="white"/>
<stop offset="0.82"/>
</linearGradient>
<linearGradient id="paint1_linear_36_170" x1="497.467" y1="29.1256" x2="370.332" y2="297.97" gradientUnits="userSpaceOnUse">
<stop stop-color="white"/>
<stop offset="0.82"/>
</linearGradient>
<linearGradient id="paint2_linear_36_170" x1="497.467" y1="29.1256" x2="370.332" y2="297.97" gradientUnits="userSpaceOnUse">
<stop stop-color="white"/>
<stop offset="0.82"/>
</linearGradient>
<linearGradient id="paint3_linear_36_170" x1="497.467" y1="29.1256" x2="370.332" y2="297.97" gradientUnits="userSpaceOnUse">
<stop stop-color="white"/>
<stop offset="0.82"/>
</linearGradient>
<linearGradient id="paint4_linear_36_170" x1="533.648" y1="47.216" x2="249.226" y2="366.312" gradientUnits="userSpaceOnUse">
<stop stop-color="white"/>
<stop offset="1" stop-color="#4A4A4A"/>
</linearGradient>
<linearGradient id="paint5_linear_36_170" x1="485.213" y1="43.4402" x2="447.456" y2="64.0452" gradientUnits="userSpaceOnUse">
<stop offset="0.18" stop-color="white"/>
<stop offset="1" stop-color="#9B9494"/>
</linearGradient>
<linearGradient id="paint6_linear_36_170" x1="480.884" y1="362.794" x2="543.196" y2="541.186" gradientUnits="userSpaceOnUse">
<stop stop-color="#5B4307"/>
<stop offset="1" stop-color="#C18F0E"/>
</linearGradient>
<linearGradient id="paint7_linear_36_170" x1="374.854" y1="514.553" x2="447.216" y2="350.231" gradientUnits="userSpaceOnUse">
<stop stop-color="#624908"/>
<stop offset="1" stop-color="#C89510"/>
</linearGradient>
<linearGradient id="paint8_linear_36_170" x1="509.528" y1="283.397" x2="509.528" y2="397.467" gradientUnits="userSpaceOnUse">
<stop stop-color="#272525"/>
<stop offset="1"/>
</linearGradient>
<linearGradient id="paint9_linear_36_170" x1="477.869" y1="225.106" x2="244.201" y2="455.759" gradientUnits="userSpaceOnUse">
<stop stop-color="#CB9B1E"/>
<stop offset="1" stop-color="#5B4307"/>
</linearGradient>
<linearGradient id="paint10_linear_36_170" x1="432.141" y1="372.844" x2="472.844" y2="239.176" gradientUnits="userSpaceOnUse">
<stop offset="0.0283346" stop-color="#151519"/>
<stop offset="1" stop-color="#1F1F20"/>
</linearGradient>
<linearGradient id="paint11_linear_36_170" x1="367.568" y1="190.432" x2="367.568" y2="335.355" gradientUnits="userSpaceOnUse">
<stop stop-color="#171015"/>
<stop offset="1" stop-color="#14181B"/>
</linearGradient>
<linearGradient id="paint12_linear_36_170" x1="306.01" y1="189.93" x2="236.915" y2="444.201" gradientUnits="userSpaceOnUse">
<stop stop-color="#F2AC02"/>
<stop offset="0.945" stop-color="#8C6401"/>
</linearGradient>
<linearGradient id="paint13_linear_36_170" x1="210.784" y1="144.703" x2="210.784" y2="418.573" gradientUnits="userSpaceOnUse">
<stop stop-color="#1F8AFE"/>
<stop offset="1" stop-color="#135398"/>
</linearGradient>
<linearGradient id="paint14_linear_36_170" x1="347.216" y1="127.116" x2="454.251" y2="209.528" gradientUnits="userSpaceOnUse">
<stop offset="0.030329" stop-color="#03588C"/>
<stop offset="0.552215" stop-color="#011826"/>
</linearGradient>
<linearGradient id="paint15_linear_36_170" x1="335.156" y1="282.894" x2="364.804" y2="135.658" gradientUnits="userSpaceOnUse">
<stop/>
<stop offset="1" stop-color="#2A2929"/>
</linearGradient>
<linearGradient id="paint16_linear_36_170" x1="108.523" y1="378.372" x2="206.01" y2="158.774" gradientUnits="userSpaceOnUse">
<stop offset="0.486688" stop-color="#03588C"/>
<stop offset="1" stop-color="#0B476C"/>
</linearGradient>
<linearGradient id="paint17_linear_36_170" x1="267.819" y1="219.075" x2="284.905" y2="166.312" gradientUnits="userSpaceOnUse">
<stop offset="0.271605" stop-color="#121517"/>
<stop offset="1" stop-color="#131517"/>
</linearGradient>
<linearGradient id="paint18_linear_36_170" x1="107.015" y1="210.03" x2="173.347" y2="303.497" gradientUnits="userSpaceOnUse">
<stop stop-color="#03588C"/>
<stop offset="1" stop-color="#011826"/>
</linearGradient>
<clipPath id="clip0_36_170">
<rect width="600" height="491.457" fill="white" transform="translate(4 4)"/>
</clipPath>
</defs>
</svg>
