<svg width="200" height="164" viewBox="0 0 200 164" fill="none" xmlns="http://www.w3.org/2000/svg">
<g clip-path="url(#clip0_36_200)">
<path d="M105.863 13.8466C105.059 14.9186 100.279 17.5317 97.9899 18.7042C105.304 17.085 124.054 14.8181 140.536 18.7042C157.018 22.5903 161.921 27.917 162.312 30.0945C172.362 32.1046 169.179 24.6785 166.332 20.7143C137.353 -1.22877 106.868 12.5066 105.863 13.8466Z" fill="url(#paint0_linear_36_200)"/>
<path d="M126.131 42.3222C132.496 43.4388 145.37 43.8586 150.586 40.0334C155.611 36.3483 152.764 38.1346 152.764 37.4646C152.764 36.7946 149.414 33.5008 147.069 32.3282C145.896 33.3333 134.506 35.287 129.146 34.617C123.786 33.947 116.415 34.1145 107.035 35.287C99.531 36.2251 93.7464 40.3681 91.7923 42.3222C98.6265 38.9721 117.532 40.9262 126.131 42.3222Z" fill="url(#paint1_linear_36_200)"/>
<path d="M155.109 73.8131C160.871 66.4429 159.855 51.4234 158.626 44.8348L153.266 46.0636L149.916 49.6925L150.419 52.0375C154.606 62.0519 149.246 77.1631 147.069 79.3407C144.891 81.5183 142.714 86.5434 144.556 84.0308C146.03 82.0208 152.205 76.3816 155.109 73.8131Z" fill="url(#paint2_linear_36_200)"/>
<path d="M183.92 47.0123C183.116 43.7963 183.585 39.7537 183.92 38.1346L176.717 37.4646L169.179 40.4797C167.895 40.8706 165.762 41.5852 167.504 41.3172C169.682 40.9822 178.392 51.1999 178.56 52.0375C178.727 52.875 184.925 60.7477 185.595 59.4076C186.265 58.0676 184.925 51.0324 183.92 47.0123Z" fill="url(#paint3_linear_36_200)"/>
<path d="M62.479 60.3652L56.6164 64.7203C81.742 -30.9245 174.707 -3.45381 191.625 38.4221C216.415 88.3384 179.564 130.717 155.444 139.93C160.536 134.704 161.586 133.62 161.474 133.732C205.695 95.8091 195.756 54.391 185.26 38.4221C179.765 37.0821 168.677 40.9906 163.819 43.1123C177.889 62.1407 175.935 84.5417 173.199 93.3635C170.251 105.424 162.032 112.794 158.291 114.972C178.526 78.9246 166.723 53.386 158.291 45.1223C155.611 44.4523 128.643 64.8878 122.278 71.0854C115.913 77.2831 108.543 84.9883 106.198 88.3384C103.853 91.6885 104.02 91.3535 98.4924 95.8761C94.0703 99.4942 90.7313 99.6171 89.6147 99.2262C93.0988 99.4942 95.9799 95.2061 96.9849 93.0285C111.725 68.7739 142.323 47.8583 155.779 40.4322C154.573 38.9581 148.353 34.3464 145.394 32.2246C118.325 15.8762 88.1072 30.8845 76.3819 40.4322C84.2546 26.8644 102.178 22.1743 107.37 21.3368C112.563 20.4993 123.283 20.3317 129.648 20.6668C133.668 21.3714 143.652 24.2546 151.424 30.1508L155.779 32.9983L160.301 38.4221C164.68 36.5585 175.256 33.0318 182.531 33.8359C176.656 25.1895 167.873 18.4287 161.139 14.3121L160.804 14.1305L154.941 10.9515C145.896 7.21064 122.781 1.2363 99.8325 12.6266C79.4184 22.7592 64.9357 49.3099 62.479 60.3652Z" fill="url(#paint4_linear_36_200)"/>
<path d="M160.804 13.5679L155.611 10.8878C161.24 26.2982 155.053 30.1508 151.256 30.1508L155.109 32.8309C164.087 30.1508 162.647 18.8722 160.804 13.5679Z" fill="url(#paint5_linear_36_200)"/>
<path d="M156.951 145.161C154.501 146.957 129.305 158.411 116.583 163.484C128.091 163.484 150.443 153.633 160.181 148.708C168.166 143.388 179.117 135.261 184.255 119.598C183.242 122.405 168.841 136.443 156.951 145.161Z" fill="#C09513"/>
<path d="M160.302 147.069C165.26 143.987 180.021 129.481 184.255 119.598C183.585 122.39 180.905 129.548 175.544 135.846C170.184 142.144 163.149 147.18 160.302 148.911L157.454 150.251C155.109 151.591 148.074 154.941 141.374 157.286C137.697 158.573 129.09 161.474 125.126 162.479C123.73 162.758 120.67 163.35 119.598 163.484C118.526 163.618 117.253 163.54 116.75 163.484C133.668 159.129 155.343 150.151 160.302 147.069Z" fill="url(#paint6_linear_36_200)"/>
<path d="M158.961 117.253C162.58 114.841 177.219 100.056 184.087 92.9648C182.915 96.4824 162.814 126.968 150.754 137.521C145.049 142.513 112.395 153.936 99.33 155.611C88.8777 156.951 77.4429 157.621 73.0318 157.789C97.6549 152.429 110.05 145.561 119.765 141.709C129.481 137.856 154.439 120.268 158.961 117.253Z" fill="#F2BE22"/>
<path d="M150.921 132.663C154.673 130.787 174.595 105.528 184.087 93.1323C182.297 98.658 174.204 108.208 168.127 117.42C158.291 130.318 155.125 135.196 150.921 137.856C142.714 143.049 132.552 146.064 125.293 148.744C113.903 152.496 106.421 154.606 101.675 155.444C87.7722 157.286 76.5494 157.956 73.7018 157.621C89.7822 156.951 123.786 147.236 150.921 132.663Z" fill="url(#paint7_linear_36_200)"/>
<path d="M152.764 131.156C155.578 129.414 174.93 105.081 184.255 93.1323L183.92 94.1373L182.915 95.9799L180.569 99.665L178.057 103.685L165.327 121.273C156.348 132.127 154.215 130.932 152.764 131.156Z" fill="url(#paint8_linear_36_200)"/>
<path d="M74.3718 141.206C118.057 121.24 149.135 92.6298 160.469 78.392C155.555 89.3357 144.657 108.878 130.318 118.928C134.606 119.464 142.379 115.131 145.729 112.898C139.531 122.781 104.858 139.363 83.2496 146.231C65.9631 151.725 43.8861 153.992 35.0084 154.439C47.0539 150.53 71.7906 142.412 74.3718 141.206Z" fill="url(#paint9_linear_36_200)"/>
<path d="M74.3718 141.206C118.057 121.24 149.135 92.6298 160.469 78.392C155.555 89.3357 144.657 108.878 130.318 118.928L89.2797 140.034C64.3216 148.576 43.8861 153.992 35.0084 154.439C47.0539 150.53 71.7906 142.412 74.3718 141.206Z" fill="#FFCA06" fill-opacity="0.36"/>
<path d="M160.623 78.9142L162.982 73.5343C162.453 75.1547 161.647 76.9665 160.623 78.9142L145.729 112.898C142.881 115.299 134.807 120.234 129.313 119.43C137.606 110.604 153.86 91.7866 160.623 78.9142Z" fill="url(#paint10_linear_36_200)"/>
<path d="M98.8275 110.05C109.682 104.958 133.166 75.9909 143.551 62.144L121.273 99.33C107.705 111.223 99.8884 110.999 98.8275 110.05Z" fill="url(#paint11_linear_36_200)"/>
<path d="M111.39 89.2797C119.028 85.2596 136.013 69.4027 143.551 61.9766C137.688 72.6409 120.569 97.2529 98.995 110.385C112.529 106.365 119.71 101.005 121.608 98.8275C114.573 108.375 89.9497 121.943 76.0469 128.141C64.9246 133.099 51.2563 137.521 11.7253 146.734C52.2613 134.171 91.6807 105.751 111.39 89.2797Z" fill="url(#paint12_linear_36_200)"/>
<path d="M62.6466 133.836C56.1585 136.236 26.9682 143.049 12.3953 146.566C56.3484 135.31 88.9092 117.678 99.6955 110.269C114.349 104.878 117.747 102.139 121.398 99.1966L121.441 99.1625C110.385 113.568 74.8744 129.313 62.6466 133.836Z" fill="#B0890C"/>
<path d="M119.263 55.9463C127.973 52.3283 134.171 48.4087 136.181 46.9011C127.303 53.6013 108.744 68.1407 105.528 72.6968C101.508 78.3919 96.4824 85.7621 89.6147 92.1273C93.6348 88.6432 101.898 83.082 105.528 80.737C101.005 83.7386 96.4824 89.6147 89.6147 96.4824C82.7471 103.35 55.1089 118.09 52.4288 118.76C49.7487 119.43 24.9581 127.806 17.5879 132.161C12.6177 135.098 6.74289 136.971 3.31462 137.822C2.67295 138.055 2.11098 138.191 1.67505 138.191C2.12222 138.103 2.67597 137.98 3.31462 137.822C6.37136 136.712 11.2365 133.407 12.8978 132.161C14.9079 130.653 19.263 126.801 27.3032 124.288C35.3434 121.775 85.5946 78.7269 88.6097 76.0469C91.6248 73.3668 108.375 60.469 119.263 55.9463Z" fill="url(#paint13_linear_36_200)"/>
<path d="M78.8945 94.1374C88.0067 83.0151 120.547 58.2355 135.678 47.2362C126.912 54.1598 108.48 69.0442 105.36 73.5344C98.7199 83.0895 94.6375 86.799 90.993 90.8697C92.5075 89.3665 97.3112 85.9518 101.843 83.0821C102.061 82.9437 105.754 80.5206 105.528 80.737C101.843 84.2546 89.8717 96.8409 87.1022 98.995C82.9146 102.252 61.3065 114.908 56.6164 117.253C52.8643 119.129 49.2462 120.045 47.9062 120.268C44.8911 120.938 32.5517 125.684 25.4606 128.476L40.871 121.273C49.7487 116.862 69.7822 105.26 78.8945 94.1374Z" fill="url(#paint14_linear_36_200)"/>
<path d="M105.36 80.9045C101.619 83.3611 93.5343 88.7772 91.1223 90.7872C94.4723 87.1021 102.111 78.3919 105.863 73.0318C108.274 69.8288 124.083 56.5701 132.697 49.5078C133.252 48.9748 133.643 48.6502 133.836 48.5762C133.473 48.8727 133.093 49.1835 132.697 49.5078C128.233 53.7953 113.157 71.5681 105.36 80.9045Z" fill="url(#paint15_linear_36_200)"/>
<path d="M97.3199 47.9062C97.2241 47.9264 97.1229 47.9481 97.0167 47.9722C93.7025 48.998 84.5159 60.5163 82.2445 61.9766C79.8995 63.4841 78.8944 67.5042 77.2194 69.6818C75.5443 71.8593 53.7688 89.2798 48.2412 93.2999C43.9052 96.4533 16.3453 110.601 2.32553 117.678C2.03909 117.829 1.76611 117.967 1.50751 118.09C1.77466 117.956 2.04744 117.818 2.32553 117.678C10.9447 113.136 31.744 96.6831 39.3635 87.6047C47.2361 78.2245 75.2093 59.6315 82.2445 54.6064C87.6713 50.73 94.1571 48.6188 97.0167 47.9722C97.1243 47.9391 97.2254 47.9166 97.3199 47.9062Z" fill="#1F8AFE"/>
<path d="M96.4824 48.2412C95.7842 48.8298 94.9876 49.5059 94.1213 50.2466C90.9008 53.6647 85.5725 60.3598 84.0871 61.474C82.077 62.9816 77.3869 69.3467 76.8844 70.1843C76.3819 71.0218 64.1541 80.9045 61.6415 82.9146C59.6315 84.5226 50.4187 92.2948 45.8961 94.8074L38.5259 98.995L31.9933 102.345C34.6174 100 40.469 94.9414 42.8811 93.4673C45.8961 91.6248 50.4187 87.1022 53.4338 83.5846C55.8459 80.7705 68.9558 71.8034 75.2094 67.6717C78.1487 64.1444 87.9223 55.5454 94.1213 50.2466C95.2583 49.0395 96.1327 48.2412 96.4824 48.2412Z" fill="url(#paint16_linear_36_200)"/>
<path d="M80.2345 65.6617C76.7504 67.8057 73.6459 69.1233 72.5293 69.5143L75.5444 67.1692C76.8844 65.858 84.9246 58.124 86.4321 56.7839C87.611 55.736 93.5276 49.8543 96.6094 48.1823C96.6911 48.1293 96.7608 48.0925 96.8174 48.0737C96.7497 48.1076 96.68 48.1437 96.6094 48.1823C94.946 49.262 88.2616 57.1635 84.5896 61.4741C83.0821 62.8141 81.5745 64.4891 80.2345 65.6617Z" fill="url(#paint17_linear_36_200)"/>
<path d="M30.8208 84.7571C39.397 79.129 52.5963 59.1849 58.124 49.9163C50.5303 57.9005 33.6013 75.4439 26.6332 81.7421C19.665 88.0402 5.9743 99.4416 0 104.355C4.0201 102.345 20.1005 91.7923 30.8208 84.7571Z" fill="#1F8AFE"/>
<path d="M32.4958 79.732C26.3316 86.2982 12.0603 96.65 5.69513 101.005C12.2278 97.32 27.3032 88.1072 34.6734 81.7421C40.5695 76.65 52.8754 58.459 57.7889 50.5863C51.9263 57.5655 38.66 73.1659 32.4958 79.732Z" fill="url(#paint18_linear_36_200)"/>
</g>
<defs>
<linearGradient id="paint0_linear_36_200" x1="164.489" y1="8.37525" x2="122.111" y2="97.99" gradientUnits="userSpaceOnUse">
<stop stop-color="white"/>
<stop offset="0.82"/>
</linearGradient>
<linearGradient id="paint1_linear_36_200" x1="164.489" y1="8.37515" x2="122.111" y2="97.9899" gradientUnits="userSpaceOnUse">
<stop stop-color="white"/>
<stop offset="0.82"/>
</linearGradient>
<linearGradient id="paint2_linear_36_200" x1="164.489" y1="8.37521" x2="122.111" y2="97.9899" gradientUnits="userSpaceOnUse">
<stop stop-color="white"/>
<stop offset="0.82"/>
</linearGradient>
<linearGradient id="paint3_linear_36_200" x1="164.489" y1="8.37515" x2="122.111" y2="97.9899" gradientUnits="userSpaceOnUse">
<stop stop-color="white"/>
<stop offset="0.82"/>
</linearGradient>
<linearGradient id="paint4_linear_36_200" x1="176.549" y1="14.4054" x2="81.742" y2="120.771" gradientUnits="userSpaceOnUse">
<stop stop-color="white"/>
<stop offset="1" stop-color="#4A4A4A"/>
</linearGradient>
<linearGradient id="paint5_linear_36_200" x1="160.404" y1="13.1468" x2="147.819" y2="20.0151" gradientUnits="userSpaceOnUse">
<stop offset="0.18" stop-color="white"/>
<stop offset="1" stop-color="#9B9494"/>
</linearGradient>
<linearGradient id="paint6_linear_36_200" x1="158.961" y1="119.598" x2="179.732" y2="179.062" gradientUnits="userSpaceOnUse">
<stop stop-color="#5B4307"/>
<stop offset="1" stop-color="#C18F0E"/>
</linearGradient>
<linearGradient id="paint7_linear_36_200" x1="123.618" y1="170.184" x2="147.739" y2="115.41" gradientUnits="userSpaceOnUse">
<stop stop-color="#624908"/>
<stop offset="1" stop-color="#C89510"/>
</linearGradient>
<linearGradient id="paint8_linear_36_200" x1="168.509" y1="93.1323" x2="168.509" y2="131.156" gradientUnits="userSpaceOnUse">
<stop stop-color="#272525"/>
<stop offset="1"/>
</linearGradient>
<linearGradient id="paint9_linear_36_200" x1="157.956" y1="73.7019" x2="80.067" y2="150.586" gradientUnits="userSpaceOnUse">
<stop stop-color="#CB9B1E"/>
<stop offset="1" stop-color="#5B4307"/>
</linearGradient>
<linearGradient id="paint10_linear_36_200" x1="142.714" y1="122.948" x2="156.281" y2="78.3919" gradientUnits="userSpaceOnUse">
<stop offset="0.0283346" stop-color="#151519"/>
<stop offset="1" stop-color="#1F1F20"/>
</linearGradient>
<linearGradient id="paint11_linear_36_200" x1="121.189" y1="62.144" x2="121.189" y2="110.452" gradientUnits="userSpaceOnUse">
<stop stop-color="#171015"/>
<stop offset="1" stop-color="#14181B"/>
</linearGradient>
<linearGradient id="paint12_linear_36_200" x1="100.67" y1="61.9766" x2="77.6382" y2="146.734" gradientUnits="userSpaceOnUse">
<stop stop-color="#F2AC02"/>
<stop offset="0.945" stop-color="#8C6401"/>
</linearGradient>
<linearGradient id="paint13_linear_36_200" x1="68.928" y1="46.9011" x2="68.928" y2="138.191" gradientUnits="userSpaceOnUse">
<stop stop-color="#1F8AFE"/>
<stop offset="1" stop-color="#135398"/>
</linearGradient>
<linearGradient id="paint14_linear_36_200" x1="114.405" y1="41.0386" x2="150.084" y2="68.5092" gradientUnits="userSpaceOnUse">
<stop offset="0.030329" stop-color="#03588C"/>
<stop offset="0.552215" stop-color="#011826"/>
</linearGradient>
<linearGradient id="paint15_linear_36_200" x1="110.385" y1="92.9648" x2="120.268" y2="43.8861" gradientUnits="userSpaceOnUse">
<stop/>
<stop offset="1" stop-color="#2A2929"/>
</linearGradient>
<linearGradient id="paint16_linear_36_200" x1="34.8409" y1="124.791" x2="67.3367" y2="51.5913" gradientUnits="userSpaceOnUse">
<stop offset="0.486688" stop-color="#03588C"/>
<stop offset="1" stop-color="#0B476C"/>
</linearGradient>
<linearGradient id="paint17_linear_36_200" x1="87.9397" y1="71.6918" x2="93.6348" y2="54.1039" gradientUnits="userSpaceOnUse">
<stop offset="0.271605" stop-color="#121517"/>
<stop offset="1" stop-color="#131517"/>
</linearGradient>
<linearGradient id="paint18_linear_36_200" x1="34.3383" y1="68.6768" x2="56.4489" y2="99.8325" gradientUnits="userSpaceOnUse">
<stop stop-color="#03588C"/>
<stop offset="1" stop-color="#011826"/>
</linearGradient>
<clipPath id="clip0_36_200">
<rect width="200" height="163.819" fill="white"/>
</clipPath>
</defs>
</svg>
