<svg width="512" height="512" viewBox="0 0 512 512" fill="none" xmlns="http://www.w3.org/2000/svg">
<path d="M160 368C186.5 368 208 389.5 208 416V432L280.5 377.6C288.8 371.4 298.9 368 309.3 368H448C456.8 368 464 360.8 464 352V64C464 55.2 456.8 48 448 48H64C55.2 48 48 55.2 48 64V352C48 360.8 55.2 368 64 368H160ZM208 492L207.8 492.2L202.7 496L185.6 508.8C180.8 512.4 174.3 513 168.8 510.3C163.3 507.6 160 502.1 160 496V474.7V468.3V468V464V416H112H64C28.7 416 0 387.3 0 352V64C0 28.7 28.7 0 64 0H448C483.3 0 512 28.7 512 64V352C512 387.3 483.3 416 448 416H309.3L208 492Z" fill="#020659"/>
</svg>
