<svg width="24" height="18" viewBox="0 0 24 18" fill="none" xmlns="http://www.w3.org/2000/svg">
<path d="M7.81468 0.86466C7.46312 0.210754 6.53627 -0.137293 5.65052 0.0490349L1.63266 0.892785C0.838222 1.06153 0.285767 1.617 0.285767 2.24982C0.285767 10.9475 9.44465 17.9998 20.7403 17.9998C21.5621 17.9998 22.2835 17.5744 22.5027 16.9627L23.5985 13.869C23.8405 13.1869 23.3884 12.4733 22.5392 12.2026L18.1561 10.7963C17.4119 10.5572 16.549 10.7225 16.0422 11.2041L14.1976 12.9373C10.9833 11.7666 8.38083 9.76271 6.86044 7.28771L9.11135 5.87091C9.73686 5.47716 9.95145 4.81622 9.64098 4.24318L7.81468 0.868176V0.86466Z" fill="#020659"/>
</svg>
