<svg width="15" height="19" viewBox="0 0 15 19" fill="none" xmlns="http://www.w3.org/2000/svg">
<path d="M4.82143 5.88159V7.56909H10.1786V5.88159C10.1786 4.32769 8.97991 3.06909 7.5 3.06909C6.02009 3.06909 4.82143 4.32769 4.82143 5.88159ZM2.67857 7.56909V5.88159C2.67857 3.08667 4.83817 0.819092 7.5 0.819092C10.1618 0.819092 12.3214 3.08667 12.3214 5.88159V7.56909H12.8571C14.0391 7.56909 15 8.57808 15 9.81909V16.5691C15 17.8101 14.0391 18.8191 12.8571 18.8191H2.14286C0.960938 18.8191 0 17.8101 0 16.5691V9.81909C0 8.57808 0.960938 7.56909 2.14286 7.56909H2.67857Z" fill="#022859"/>
</svg>
